<svg width="30" height="30" viewBox="0 0 30 30" version="1.1" xmlns="http://www.w3.org/2000/svg" xmlns:xlink="http://www.w3.org/1999/xlink">
<title>Permissions_normal</title>
<desc>Created using Figma</desc>
<g id="Canvas" transform="translate(-25544 -30999)">
<clipPath id="clip-0" clip-rule="evenodd">
<path d="M 25544 30999L 25574 30999L 25574 31029L 25544 31029L 25544 30999Z" fill="#FFFFFF"/>
</clipPath>
<g id="Permissions_normal" clip-path="url(#clip-0)">
<g id="Group">
<g id="Vector (Stroke)">
<use xlink:href="#path0_fill" transform="translate(25544 31000)" fill="#122A2B"/>
</g>
<g id="Rectangle 7.1 (Stroke)">
<use xlink:href="#path1_fill" transform="translate(25551.3 31008.2)" fill="#A1E054"/>
</g>
</g>
</g>
</g>
<defs>
<path id="path0_fill" fill-rule="evenodd" d="M 14.8086 27.8971C 5.69783 25.1835 0.335864 18.7653 0.0149835 1.44354C 0.00893569 1.11707 0.0046786 0.78672 0.00222093 0.45245C 0.000642288 0.237737 0.219342 0.0917327 0.419244 0.170114C 0.720893 0.28839 1.02668 0.399519 1.33601 0.503354C 5.65247 1.9523 10.6591 1.98095 14.7477 0.189349C 14.79 0.170844 14.8321 0.152144 14.8741 0.13325C 14.9542 0.09727 15.0458 0.09727 15.1259 0.13325C 15.1679 0.152144 15.21 0.170844 15.2523 0.189349C 19.3409 1.98095 24.3475 1.9523 28.664 0.503352C 28.9733 0.399517 29.2791 0.288388 29.5808 0.170113C 29.7807 0.0917323 29.9994 0.237736 29.9978 0.45245C 29.9953 0.78672 29.9911 1.11707 29.985 1.44354C 29.6641 18.7653 24.3022 25.1835 15.1914 27.8971C 15.1555 27.9078 15.1196 27.9184 15.0837 27.929C 15.029 27.945 14.971 27.945 14.9163 27.929C 14.8804 27.9184 14.8445 27.9078 14.8086 27.8971ZM 28.6299 2.33165C 28.636 2.12642 28.438 1.97493 28.2408 2.03211C 23.9921 3.26411 19.1957 3.23846 15.1153 1.57877C 15.0414 1.54869 14.9586 1.54869 14.8847 1.57877C 10.8043 3.23846 6.0079 3.26411 1.75916 2.03211C 1.56196 1.97493 1.36398 2.12642 1.37007 2.33165C 1.60385 10.2045 2.93602 15.54 5.11094 19.2167C 7.37534 23.0448 10.6368 25.2129 14.912 26.5351C 14.9691 26.5528 15.0309 26.5528 15.088 26.5351C 19.3632 25.2129 22.6247 23.0448 24.8891 19.2167C 27.064 15.54 28.3962 10.2045 28.6299 2.33165Z"/>
<path id="path1_fill" fill-rule="evenodd" d="M 6.38678 7.15194L 14.0239 0L 15.391 1.45982L 6.34114 9.93474L 0 3.59359L 1.41421 2.17938L 6.38678 7.15194Z"/>
</defs>
</svg>
