<svg width="14" height="14" viewBox="0 0 14 14" fill="none" xmlns="http://www.w3.org/2000/svg">
<path fill-rule="evenodd" clip-rule="evenodd" d="M7 13.125C10.3827 13.125 13.125 10.3827 13.125 7C13.125 3.61726 10.3827 0.875 7 0.875C3.61726 0.875 0.875 3.61726 0.875 7C0.875 10.3827 3.61726 13.125 7 13.125ZM7 14C10.866 14 14 10.866 14 7C14 3.13401 10.866 0 7 0C3.13401 0 0 3.13401 0 7C0 10.866 3.13401 14 7 14Z" fill="#7F8C8D"/>
<path fill-rule="evenodd" clip-rule="evenodd" d="M0.65625 0C1.01869 0 1.3125 0.293813 1.3125 0.65625V5.03125C1.3125 5.39369 1.01869 5.6875 0.65625 5.6875C0.293813 5.6875 0 5.39369 0 5.03125V0.65625C0 0.293813 0.293813 0 0.65625 0Z" transform="translate(6.34375 5.36328)" fill="#7F8C8D"/>
<path d="M1.3125 0.65625C1.3125 1.01869 1.01869 1.3125 0.65625 1.3125C0.293813 1.3125 0 1.01869 0 0.65625C0 0.293813 0.293813 0 0.65625 0C1.01869 0 1.3125 0.293813 1.3125 0.65625Z" transform="translate(6.34375 2.94531)" fill="#7F8C8D"/>
</svg>
