<svg xmlns="http://www.w3.org/2000/svg" xmlns:xlink="http://www.w3.org/1999/xlink" xmlns:sketch="http://www.bohemiancoding.com/sketch/ns" viewBox="0 0 100 125" version="1.1" x="0px" y="0px"><title>spinner-2</title><desc>Created with Sketch.</desc><g stroke="none" stroke-width="1" fill="none" fill-rule="evenodd" sketch:type="MSPage"><path d="M49.54175,89.7783125 C45.0405,91.7051875 30.823,86.0026875 28.603,84.7358125 C18.66925,79.0683125 11.54925,69.1026875 9.423,57.8633125 C7.031125,45.2220625 11.13675,31.9308125 19.80675,22.5070625 C29.552375,12.0958125 44.259875,7.2464375 58.30925,9.6776875 C78.782375,13.2208125 93.203625,31.9683125 94.57925,52.1758125 C94.931125,57.3433125 91.027375,61.8170625 85.859875,62.1689375 C80.692375,62.5208125 76.218,58.6170625 75.866125,53.4495625 C75.85675,53.3126875 75.8505,53.1764375 75.847375,53.0408125 L75.82925,52.1758125 C75.82925,52.1758125 75.81925,51.6883125 75.8005,50.7751875 C75.79925,50.5476875 75.797375,50.2945625 75.7955,50.0158125 C75.712375,37.5833125 64.842375,26.4714375 52.946125,24.2745625 C19.49425,18.0976875 7.18175,67.2176875 35.5805,82.0920625 C35.903,82.2776875 36.2205,82.4608125 36.533,82.6401875 C36.853625,82.8020625 37.17925,82.9389375 37.49425,83.0864375 C38.129875,83.3783125 38.742375,83.6595625 39.331125,83.9301875 C40.53925,84.3933125 41.683625,84.7483125 42.7105,85.1120625 C43.7405,85.3564375 44.659875,85.5745625 45.459875,85.7639375 C45.84925,85.8764375 46.2705,85.9226875 46.648,85.9720625 C47.024875,86.0226875 47.36675,86.0683125 47.673625,86.1095625 C48.899875,86.2733125 49.553625,86.3608125 49.553625,86.3608125 C50.394875,86.4739375 50.987375,87.2408125 50.887375,88.0839375 C50.788,88.9070625 50.30425,89.4520625 49.54175,89.7783125" fill="#000000" sketch:type="MSShapeGroup"/></g><text x="0" y="115" fill="#000000" font-size="5px" font-weight="bold" font-family="'Helvetica Neue', Helvetica, Arial-Unicode, Arial, Sans-serif">Created by Icon Island</text><text x="0" y="120" fill="#000000" font-size="5px" font-weight="bold" font-family="'Helvetica Neue', Helvetica, Arial-Unicode, Arial, Sans-serif">from the Noun Project</text></svg>