<svg width="35" height="37" viewBox="0 0 35 37" version="1.1" xmlns="http://www.w3.org/2000/svg" xmlns:xlink="http://www.w3.org/1999/xlink">
<title>noun_392136_cc</title>
<desc>Created using Figma</desc>
<g id="Canvas" transform="translate(-23841 -35768)">
<g id="noun_392136_cc">
<g id="Vector">
<use xlink:href="#path0_fill" transform="translate(23856.1 35768)" fill="#344955"/>
</g>
<g id="Vector">
<use xlink:href="#path1_fill" transform="translate(23848.4 35770.3)" fill="#344955"/>
</g>
<g id="Vector">
<use xlink:href="#path2_fill" transform="translate(23842.9 35776.3)" fill="#344955"/>
</g>
<g id="Vector">
<use xlink:href="#path3_fill" transform="translate(23841 35784.4)" fill="#344955"/>
</g>
<g id="Vector">
<use xlink:href="#path4_fill" transform="translate(23843.4 35792.5)" fill="#344955"/>
</g>
<g id="Vector">
<use xlink:href="#path5_fill" transform="translate(23849.5 35798.5)" fill="#344955"/>
</g>
<g id="Vector">
<use xlink:href="#path6_fill" transform="translate(23857.7 35800.9)" fill="#344955"/>
</g>
<g id="Vector">
<use xlink:href="#path7_fill" transform="translate(23865.9 35799)" fill="#344955"/>
</g>
<g id="Vector">
<use xlink:href="#path8_fill" transform="translate(23872 35793.6)" fill="#344955"/>
</g>
<g id="Vector">
<use xlink:href="#path9_fill" transform="translate(23874.4 35786)" fill="#344955"/>
</g>
<g id="Vector">
<use xlink:href="#path10_fill" transform="translate(23867 35773)" fill="#344955"/>
</g>
<g id="Vector">
<use xlink:href="#path11_fill" transform="translate(23872.6 35778.4)" fill="#344955"/>
</g>
</g>
</g>
<defs>
<path id="path0_fill" d="M 3.18175 6.26088C 4.93898 6.26088 6.3635 4.85934 6.3635 3.13044C 6.3635 1.40155 4.93898 0 3.18175 0C 1.42452 0 0 1.40155 0 3.13044C 0 4.85934 1.42452 6.26088 3.18175 6.26088Z"/>
<path id="path1_fill" d="M 2.9166 5.73914C 4.5274 5.73914 5.83321 4.45439 5.83321 2.86957C 5.83321 1.28475 4.5274 0 2.9166 0C 1.30581 0 0 1.28475 0 2.86957C 0 4.45439 1.30581 5.73914 2.9166 5.73914Z"/>
<path id="path2_fill" d="M 2.65146 5.2174C 4.11582 5.2174 5.30292 4.04945 5.30292 2.6087C 5.30292 1.16795 4.11582 0 2.65146 0C 1.1871 0 0 1.16795 0 2.6087C 0 4.04945 1.1871 5.2174 2.65146 5.2174Z"/>
<path id="path3_fill" d="M 2.38631 4.69566C 3.70424 4.69566 4.77263 3.6445 4.77263 2.34783C 4.77263 1.05116 3.70424 0 2.38631 0C 1.06839 0 0 1.05116 0 2.34783C 0 3.6445 1.06839 4.69566 2.38631 4.69566Z"/>
<path id="path4_fill" d="M 2.12117 4.17392C 3.29266 4.17392 4.24233 3.23956 4.24233 2.08696C 4.24233 0.934364 3.29266 0 2.12117 0C 0.949679 0 0 0.934364 0 2.08696C 0 3.23956 0.949679 4.17392 2.12117 4.17392Z"/>
<path id="path5_fill" d="M 1.85602 3.65218C 2.88107 3.65218 3.71204 2.83461 3.71204 1.82609C 3.71204 0.817569 2.88107 0 1.85602 0C 0.830969 0 0 0.817569 0 1.82609C 0 2.83461 0.830969 3.65218 1.85602 3.65218Z"/>
<path id="path6_fill" d="M 1.59088 3.13044C 2.46949 3.13044 3.18175 2.42967 3.18175 1.56522C 3.18175 0.700773 2.46949 0 1.59088 0C 0.712259 0 0 0.700773 0 1.56522C 0 2.42967 0.712259 3.13044 1.59088 3.13044Z"/>
<path id="path7_fill" d="M 1.32573 2.6087C 2.05791 2.6087 2.65146 2.02472 2.65146 1.30435C 2.65146 0.583977 2.05791 0 1.32573 0C 0.593549 0 0 0.583977 0 1.30435C 0 2.02472 0.593549 2.6087 1.32573 2.6087Z"/>
<path id="path8_fill" d="M 1.06058 2.08696C 1.64633 2.08696 2.12117 1.61978 2.12117 1.04348C 2.12117 0.467182 1.64633 0 1.06058 0C 0.474839 0 0 0.467182 0 1.04348C 0 1.61978 0.474839 2.08696 1.06058 2.08696Z"/>
<path id="path9_fill" d="M 0.795438 1.56522C 1.23475 1.56522 1.59088 1.21483 1.59088 0.78261C 1.59088 0.350387 1.23475 0 0.795438 0C 0.35613 0 0 0.350387 0 0.78261C 0 1.21483 0.35613 1.56522 0.795438 1.56522Z"/>
<path id="path10_fill" d="M 0.265146 0.52174C 0.411582 0.52174 0.530292 0.404945 0.530292 0.26087C 0.530292 0.116796 0.411582 0 0.265146 0C 0.11871 0 0 0.116796 0 0.26087C 0 0.404945 0.11871 0.52174 0.265146 0.52174Z"/>
<path id="path11_fill" d="M 0.530292 1.04348C 0.823164 1.04348 1.06058 0.809889 1.06058 0.52174C 1.06058 0.233591 0.823164 0 0.530292 0C 0.23742 0 0 0.233591 0 0.52174C 0 0.809889 0.23742 1.04348 0.530292 1.04348Z"/>
</defs>
</svg>
