<svg xmlns:dc="http://purl.org/dc/elements/1.1/" xmlns:cc="http://creativecommons.org/ns#" xmlns:rdf="http://www.w3.org/1999/02/22-rdf-syntax-ns#" xmlns:svg="http://www.w3.org/2000/svg" xmlns="http://www.w3.org/2000/svg" xmlns:sodipodi="http://sodipodi.sourceforge.net/DTD/sodipodi-0.dtd" xmlns:inkscape="http://www.inkscape.org/namespaces/inkscape" version="1.1" x="0px" y="0px" viewBox="0 0 100 125"><g transform="translate(0,-952.36218)"><path d="m 50.001034,963.3622 c -0.52837,-0.01 -1.01434,0.4716 -1.01434,1 0,0.5284 0.48597,1.0075 1.01434,1 20.02955,0 36.31331,15.8839 36.97253,35.75 l -3.18783,-3.8124 c -0.21113,-0.2687 -0.5671,-0.416 -0.90635,-0.375 -0.72937,0.069 -1.14025,1.1062 -0.65631,1.6562 l 5.00051,6 c 0.37323,0.4669 1.18943,0.4669 1.56266,0 l 5.00051,-6 c 0.33437,-0.4092 0.26687,-1.0854 -0.14178,-1.4205 -0.40865,-0.335 -1.08509,-0.2687 -1.42088,0.1393 l -3.25033,3.9062 c -0.61562,-20.9904 -17.83217,-37.8438 -38.97273,-37.8438 z m 0,13.9688 c -14.35286,0 -26.00265,11.4753 -26.00265,25.625 0,14.1497 11.64979,25.625 26.00265,25.625 14.35286,0 26.00265,-11.4753 26.00265,-25.625 0,-14.1497 -11.64979,-25.625 -26.00265,-25.625 z m 0,1.9688 c 13.2642,0 24.00245,10.5798 24.00245,23.6562 0,13.0764 -10.73825,23.6562 -24.00245,23.6562 -13.26419,0 -24.00245,-10.5798 -24.00245,-23.6562 0,-13.0764 10.73826,-23.6562 24.00245,-23.6562 z m 0,12.6562 c -5.51156,0 -10.00101,4.489 -10.00101,10 0,5.511 4.48945,10 10.00101,10 5.51157,0 10.00102,-4.489 10.00102,-10 0,-5.511 -4.48945,-10 -10.00102,-10 z m -38.22265,8 c -0.2189,0.047 -0.42063,0.1706 -0.56255,0.3438 l -5.0005103,6 c -0.33653,0.4089 -0.27001,1.0874 0.13955,1.4232 0.40956,0.3358 1.08799,0.2681 1.42311,-0.142 l 3.2503303,-3.9062 c 0.68595,20.9267 17.87791,37.6874 38.97272,37.6874 0.52837,0.01 1.01434,-0.4716 1.01434,-1 0,-0.5284 -0.48597,-1.0075 -1.01434,-1 -19.97722,0 -36.23363,-15.8005 -36.97252,-35.5937 l 3.18782,3.8125 c 0.33546,0.4091 1.01289,0.4761 1.422,0.1407 0.40911,-0.3355 0.47612,-1.0128 0.14067,-1.4219 l -5.00051,-6 c -0.23431,-0.2882 -0.63812,-0.42701 -1.00011,-0.3438 z" style="text-indent:0;text-transform:none;direction:ltr;block-progression:tb;baseline-shift:baseline;color:#000000;enable-background:accumulate;" fill="#000000" fill-opacity="1" stroke="none" marker="none" visibility="visible" display="inline" overflow="visible"/></g><text x="0" y="115" fill="#000000" font-size="5px" font-weight="bold" font-family="'Helvetica Neue', Helvetica, Arial-Unicode, Arial, Sans-serif">Created by ArtWorkLeaf</text><text x="0" y="120" fill="#000000" font-size="5px" font-weight="bold" font-family="'Helvetica Neue', Helvetica, Arial-Unicode, Arial, Sans-serif">from the Noun Project</text></svg>