<svg width="11" height="14" viewBox="0 0 11 14" version="1.1" xmlns="http://www.w3.org/2000/svg" xmlns:xlink="http://www.w3.org/1999/xlink">
<title>lock</title>
<desc>Created using Figma</desc>
<g id="Canvas" transform="translate(-26110 -8205)">
<g id="lock">
<use xlink:href="#path0_fill" transform="translate(26110.5 8205)" fill="#122A2B" fill-opacity="0.54"/>
</g>
</g>
<defs>
<path id="path0_fill" fill-rule="evenodd" d="M 7.5 4L 7.5 6L 2.5 6L 2.5 4C 2.5 2.61914 3.61914 1.5 5 1.5C 6.38086 1.5 7.5 2.61914 7.5 4ZM 0.529297 6.64355C 0.666016 6.49561 0.824219 6.36865 1 6.26709L 1 4C 1 1.79102 2.79102 0 5 0C 7.20898 0 9 1.79102 9 4L 9 6.26855L 9.08594 6.32129C 9.63672 6.67773 10 7.29639 10 8L 10 12C 10 12.6382 9.70117 13.2061 9.23633 13.5723C 8.89648 13.8403 8.4668 14 8 14L 2 14C 0.894531 14 0 13.1045 0 12L 0 8C 0 7.47656 0.201172 7 0.529297 6.64355ZM 4 10C 4 9.44775 4.44727 9 5 9C 5.55273 9 6 9.44775 6 10C 6 10.1729 5.95703 10.3354 5.87891 10.4775C 5.79102 10.6392 5.66016 10.7739 5.5 10.8662L 5.5 11.5C 5.5 11.7764 5.27539 12 5 12C 4.72461 12 4.5 11.7764 4.5 11.5L 4.5 10.8662C 4.20117 10.6934 4 10.3701 4 10Z"/>
</defs>
</svg>
