<svg xmlns="http://www.w3.org/2000/svg" viewBox="0 0 48 60" x="0px" y="0px"><title>9-Control and command</title><g data-name="9-Control and command"><path d="M16.394,16.659A6.8,6.8,0,0,0,12,23v2h2V23a4.794,4.794,0,0,1,3.1-4.468l4.255-1.595A1,1,0,0,0,22,16V14.65a5.889,5.889,0,0,0,4,0V16a1,1,0,0,0,.649.937L30.9,18.532A4.794,4.794,0,0,1,34,23v2h2V23a6.8,6.8,0,0,0-4.394-6.341L28,15.307V13.46A5.983,5.983,0,0,0,30,9V7h1V5H29.91A5.993,5.993,0,0,0,18.09,5H17V7h1V9a5.983,5.983,0,0,0,2,4.46v1.847ZM24,2a4,4,0,0,1,3.858,3H20.142A4,4,0,0,1,24,2ZM23,7v3h2V7h3V9a4,4,0,0,1-8,0V7Z"/><polygon points="27.555 20.832 26.445 19.168 24 20.798 21.555 19.168 20.445 20.832 23 22.535 23 33 25 33 25 22.535 27.555 20.832"/><path d="M18.343,31.847l-5.766-4.164a3.472,3.472,0,0,0-3.9-.173L6,25.5V20.162a5.381,5.381,0,0,0-3.684-5.111A1,1,0,0,0,2,15H1a1,1,0,0,0-1,1V30.945a5.371,5.371,0,0,0,1.938,4.138l6.581,5.485A9.648,9.648,0,0,1,12,48h2a11.641,11.641,0,0,0-4.2-8.969l-6.58-5.484A3.375,3.375,0,0,1,2,30.945V17.072a3.382,3.382,0,0,1,2,3.09V26a1,1,0,0,0,.4.8l2.944,2.208a3.465,3.465,0,0,0,1.133,4.276l4.942,3.53,1.162-1.628L9.64,31.657A1.471,1.471,0,0,1,10.287,29a1.484,1.484,0,0,1,1.1.29l5.781,4.175A6.842,6.842,0,0,1,20,39v9h2V39A8.846,8.846,0,0,0,18.343,31.847Z"/><path d="M47,15H46a1,1,0,0,0-.316.051A5.381,5.381,0,0,0,42,20.162V25.5l-2.679,2.009a3.458,3.458,0,0,0-3.883.163l-5.781,4.175A8.846,8.846,0,0,0,26,39v9h2V39a6.842,6.842,0,0,1,2.828-5.532l5.8-4.186a1.471,1.471,0,1,1,1.737,2.374l-4.942,3.53,1.162,1.628,4.942-3.53a3.465,3.465,0,0,0,1.133-4.276L43.6,26.8A1,1,0,0,0,44,26V20.162a3.382,3.382,0,0,1,2-3.09V30.945a3.375,3.375,0,0,1-1.219,2.6L38.2,39.031A11.641,11.641,0,0,0,34,48h2a9.651,9.651,0,0,1,3.481-7.433l6.581-5.484A5.371,5.371,0,0,0,48,30.945V16A1,1,0,0,0,47,15Z"/><path d="M9,12h5V10H10V2h4V0H9A1,1,0,0,0,8,1V11A1,1,0,0,0,9,12Z"/><path d="M40,11V1a1,1,0,0,0-1-1H34V2h4v8H34v2h5A1,1,0,0,0,40,11Z"/></g><text x="0" y="63" fill="#000000" font-size="5px" font-weight="bold" font-family="'Helvetica Neue', Helvetica, Arial-Unicode, Arial, Sans-serif">Created by Iconstock</text><text x="0" y="68" fill="#000000" font-size="5px" font-weight="bold" font-family="'Helvetica Neue', Helvetica, Arial-Unicode, Arial, Sans-serif">from the Noun Project</text></svg>