<svg xmlns="http://www.w3.org/2000/svg" xmlns:xlink="http://www.w3.org/1999/xlink" version="1.1" x="0px" y="0px" viewBox="0 0 100 125" style="enable-background:new 0 0 100 100;" xml:space="preserve"><g><path d="M70.762,41.865c0,0,2.002,0.15,2.002,2.253c0,0.892,0,6.521,0,11.171c-0.654,0.279-1.321,0.533-2.002,0.758   C70.762,49.939,70.762,41.865,70.762,41.865z M52.871,55.289c0.652,0.279,1.32,0.533,2,0.758V41.865c0,0-2,0.104-2,2.253   C52.871,45.027,52.871,50.646,52.871,55.289z M37.544,32.05c0-13.957,11.314-25.271,25.272-25.271   c13.957,0,25.271,11.314,25.271,25.271c0,7.665-3.412,14.533-8.801,19.168v-8.54c0-6.352-6.156-11.498-12.508-11.498l-3.549,4.338   l3.551,16.42l-3.965,4.049l-3.964-4.049l3.55-16.42l-3.55-4.34c-6.351,0-12.506,5.148-12.506,11.5v8.54   C40.958,46.583,37.544,39.715,37.544,32.05z M53.09,20.068c0,5.371,4.354,9.725,9.725,9.725c5.373,0,9.727-4.354,9.727-9.725   c0-5.373-4.354-9.727-9.727-9.727C57.444,10.341,53.09,14.695,53.09,20.068z M98.477,69.303c-1.706-1.736-5.096-2.455-7.523-0.068   c-5.951,5.811-17.316,10.23-22.986,10.23c0,0-15.288,2.236-21.303-3.484c0,0,21.365-0.004,21.473-0.004   c2.219-0.174,5.152-1.691,5.152-5.318c0-2.184-1.67-5.324-5.322-5.324H53.291c0,0-13.88-12.164-34.326-0.381L0,64.955v20.934   h28.972c2.914,0,4.824,7.332,33.916,7.332c18.302,0,35.354-16.223,35.521-16.385C100.504,74.775,100.534,71.396,98.477,69.303z"/></g><text x="0" y="115" fill="#000000" font-size="5px" font-weight="bold" font-family="'Helvetica Neue', Helvetica, Arial-Unicode, Arial, Sans-serif">Created by b farias</text><text x="0" y="120" fill="#000000" font-size="5px" font-weight="bold" font-family="'Helvetica Neue', Helvetica, Arial-Unicode, Arial, Sans-serif">from the Noun Project</text></svg>