<svg xmlns="http://www.w3.org/2000/svg" xmlns:xlink="http://www.w3.org/1999/xlink" version="1.1" x="0px" y="0px" viewBox="0 0 91 113.75" enable-background="new 0 0 91 91" xml:space="preserve"><g><path d="M45.568,51.239c-0.006,0-0.01,0-0.016,0c-0.726,0-1.371,0.471-1.59,1.167l-3.338,10.543   c-0.191,0.602-0.026,1.256,0.422,1.696l3.226,3.163c0.326,0.317,0.749,0.477,1.17,0.477c0.419,0,0.843-0.156,1.168-0.475   l3.232-3.162c0.442-0.434,0.612-1.075,0.435-1.669l-3.123-10.546C46.946,51.732,46.303,51.245,45.568,51.239z M45.444,64.278   l-1.327-1.299l1.382-4.366l1.289,4.35L45.444,64.278z"/><path d="M41.029,40.157c-0.571,0.724-0.444,1.774,0.281,2.342c0.808,0.635,2.355,1.381,4.183,1.381   c1.255,0,2.645-0.353,4.015-1.335c0.751-0.539,0.922-1.581,0.384-2.331c-0.537-0.75-1.578-0.925-2.331-0.384   c-2.096,1.507-3.982,0.196-4.199,0.033C42.636,39.307,41.596,39.433,41.029,40.157z"/><path d="M42.126,37.861c1.041,0,1.887-0.844,1.887-1.882c0-1.039-0.846-1.882-1.887-1.882c-1.036,0-1.878,0.844-1.878,1.882   C40.248,37.017,41.09,37.861,42.126,37.861z"/><ellipse cx="48.748" cy="35.979" rx="1.877" ry="1.882"/><path d="M31.742,38.582c0,3.959,1.699,7.6,4.479,10.133c-2.195,1.514-4.013,3.553-5.198,5.935c-1.459,2.927-2.92,14.6-0.355,18.664   c0.725,1.147,1.785,1.776,2.989,1.776c0.019,0,0.039,0,0.06,0c1.262-0.023,2.035-0.582,2.551-1.195v11.428   c0,2.998,2.439,5.439,5.435,5.439c1.462,0,2.785-0.588,3.764-1.529c0.979,0.941,2.302,1.529,3.764,1.529   c2.999,0,5.441-2.441,5.441-5.439V73.953c0.519,0.591,1.281,1.116,2.504,1.137c0.018,0,0.038,0,0.06,0   c1.202,0,2.261-0.629,2.985-1.776c2.568-4.066,1.105-15.737-0.352-18.668c-1.195-2.391-3.025-4.432-5.23-5.947   c2.808-2.554,4.501-6.201,4.501-10.117c0-7.552-6.147-13.697-13.702-13.697C37.885,24.884,31.742,31.029,31.742,38.582z    M45.438,28.225c5.71,0,10.36,4.646,10.36,10.356c0,4.088-2.418,7.804-6.152,9.466c-0.844,0.376-1.223,1.363-0.848,2.206   c0.376,0.843,1.362,1.224,2.203,0.849c0.223-0.101,0.424-0.232,0.638-0.34c2.242,1.209,4.104,3.099,5.239,5.376   c1.497,3.003,2.045,14.633,0.323,15.642c-0.769,0.144-0.999-3.644-1.157-5.144c-0.41-3.901-0.772-5.644-1.463-6.703   c-0.415-0.643-1.549-0.631-1.579-0.631c-0.054,0-1.585,0.266-1.671,1.672v24.348c0,1.156-0.942,2.099-2.101,2.099   c-1.146,0-2.074-0.926-2.092-2.065c0-0.014,0.004-0.022,0.004-0.033V70.52c0-0.925-0.748-1.673-1.672-1.673   c-0.921,0-1.67,0.748-1.67,1.673v14.754c0,0.019-0.01,0.03-0.01,0.049c0,0.011,0.004,0.02,0.004,0.033   c-0.018,1.14-0.946,2.065-2.092,2.065c-1.154,0-2.095-0.942-2.095-2.099V60.625c0-0.924-0.749-1.632-1.67-1.673   c-1.032-0.045-1.554,0.885-1.627,0.979c-0.792,0.991-1.055,2.812-1.469,6.727c-0.156,1.496-0.338,5.094-1.158,5.102   c-1.717-0.985-1.167-12.614,0.33-15.62c1.124-2.266,2.974-4.145,5.203-5.359c0.871,0.443,1.793,0.806,2.77,1.061   c0.141,0.039,0.282,0.054,0.42,0.054c0.742,0,1.422-0.498,1.616-1.253c0.232-0.893-0.304-1.805-1.198-2.034   c-4.558-1.181-7.741-5.305-7.741-10.025C35.082,32.871,39.728,28.225,45.438,28.225z"/><path d="M45.438,21.183c0.924,0,1.673-0.749,1.673-1.672v-3.834c3.502-0.766,6.142-3.889,6.142-7.623   c0-4.308-3.509-7.811-7.814-7.811c-4.307,0-7.81,3.503-7.81,7.811c0,3.734,2.637,6.856,6.14,7.623v3.834   C43.768,20.435,44.516,21.183,45.438,21.183z M40.968,8.054c0-2.466,2.007-4.471,4.47-4.471c2.465,0,4.471,2.004,4.471,4.471   c0,2.466-2.006,4.472-4.471,4.472C42.975,12.526,40.968,10.52,40.968,8.054z"/><path d="M57.718,26.82c0.328,0.324,0.751,0.483,1.176,0.483c0.429,0,0.862-0.165,1.188-0.496l2.697-2.728   c1.237,0.785,2.666,1.217,4.165,1.217c2.104,0,4.08-0.826,5.56-2.321c1.468-1.484,2.268-3.453,2.253-5.539   c-0.01-2.086-0.837-4.044-2.32-5.513c-1.473-1.452-3.422-2.253-5.49-2.253c-2.105,0-4.076,0.826-5.56,2.323   c-2.62,2.655-2.938,6.729-0.987,9.738l-2.692,2.727C57.056,25.115,57.063,26.173,57.718,26.82z M63.765,14.341   c0.847-0.856,1.979-1.33,3.182-1.33c1.184,0,2.301,0.459,3.143,1.29c0.851,0.841,1.321,1.96,1.328,3.155   c0.007,1.195-0.451,2.321-1.289,3.169c-1.678,1.697-4.623,1.719-6.324,0.039C62.05,18.932,62.033,16.095,63.765,14.341z"/><path d="M64.16,41.113c0.006,0,0.012,0,0.019,0l3.838-0.044c0.806,3.455,3.917,6.05,7.599,6.05h0.097   c2.086-0.024,4.038-0.861,5.495-2.353c1.458-1.496,2.246-3.467,2.222-5.554c-0.049-4.255-3.554-7.718-7.905-7.718l0,0   c-3.732,0.049-6.818,2.719-7.55,6.232l-3.834,0.048c-0.923,0.009-1.661,0.769-1.651,1.69C62.501,40.379,63.247,41.113,64.16,41.113   z M75.619,34.837c2.436,0,4.439,1.98,4.467,4.417c0.014,1.195-0.435,2.322-1.271,3.177c-0.834,0.855-1.951,1.332-3.145,1.348   h-0.056c-2.436,0-4.442-1.982-4.471-4.418C71.117,36.896,73.102,34.867,75.619,34.837z"/><path d="M29.49,11.992c-1.48-1.495-3.453-2.321-5.557-2.321c-2.067,0-4.02,0.801-5.492,2.256c-1.482,1.466-2.309,3.424-2.32,5.51   c-0.012,2.086,0.787,4.055,2.255,5.539c1.48,1.495,3.455,2.321,5.559,2.321c1.499,0,2.929-0.433,4.167-1.217l2.696,2.728   c0.326,0.331,0.756,0.496,1.188,0.496c0.424,0,0.849-0.159,1.175-0.483c0.655-0.647,0.661-1.706,0.012-2.362l-2.696-2.727   C32.431,18.724,32.113,14.649,29.49,11.992z M27.076,20.665c-1.701,1.68-4.648,1.658-6.325-0.039   c-0.838-0.848-1.297-1.974-1.291-3.169c0.008-1.195,0.479-2.314,1.328-3.152c0.845-0.834,1.962-1.293,3.145-1.293   c1.204,0,2.335,0.474,3.179,1.328C28.847,16.095,28.83,18.932,27.076,20.665z"/><path d="M7.451,39.21c-0.027,2.089,0.762,4.06,2.221,5.556c1.458,1.492,3.41,2.329,5.496,2.353h0.095   c3.684,0,6.794-2.596,7.599-6.05l3.838,0.044c0.006,0,0.013,0,0.019,0c0.914,0,1.66-0.734,1.67-1.649   c0.013-0.922-0.726-1.681-1.65-1.69l-3.836-0.048c-0.729-3.513-3.83-6.183-7.644-6.232C11.003,31.494,7.5,34.957,7.451,39.21z    M19.734,39.36c-0.029,2.437-2.033,4.418-4.471,4.418h-0.057c-1.191-0.017-2.309-0.493-3.143-1.348   c-0.835-0.855-1.286-1.982-1.271-3.179c0.027-2.435,2.032-4.415,4.52-4.415C17.778,34.867,19.763,36.896,19.734,39.36z"/></g><text x="0" y="106" fill="#000000" font-size="5px" font-weight="bold" font-family="'Helvetica Neue', Helvetica, Arial-Unicode, Arial, Sans-serif">Created by BomSymbols</text><text x="0" y="111" fill="#000000" font-size="5px" font-weight="bold" font-family="'Helvetica Neue', Helvetica, Arial-Unicode, Arial, Sans-serif">from the Noun Project</text></svg>