<svg xmlns="http://www.w3.org/2000/svg" data-name="Layer 1" viewBox="0 0 64 80" x="0px" y="0px"><title>resource-machine-device-element-process</title><path d="M26,49.237V55a1,1,0,0,0,1,1h1V61a1,1,0,0,0,1,1h5a1,1,0,0,0,1-1V56h1a1,1,0,0,0,1-1V49.237a2.935,2.935,0,0,0-2.169-2.8,3.35,3.35,0,0,0,.03-2,3.442,3.442,0,0,0-2.445-2.323,3.579,3.579,0,0,0-3.108.635,3.336,3.336,0,0,0-1.143,3.685A2.935,2.935,0,0,0,26,49.237Zm2,0a.963.963,0,0,1,1-.919h1.014a1,1,0,0,0,.581-1.813,1.332,1.332,0,0,1-.056-2.18,1.608,1.608,0,0,1,1.391-.271,1.427,1.427,0,0,1,1.01.94,1.338,1.338,0,0,1-.535,1.511,1,1,0,0,0,.581,1.813H34a.963.963,0,0,1,1,.919V54H34a1,1,0,0,0-1,1V60H30V55a1,1,0,0,0-1-1H28Z"/><path d="M54,52c.62,0,1,.323,1,.5h2a3.05,3.05,0,0,0-6,0c0,1.824,1.735,2.23,2.771,2.473.954.222,1.229.34,1.229.527s-.38.5-1,.5-1-.323-1-.5H51a3.05,3.05,0,0,0,6,0c0-1.827-1.736-2.232-2.773-2.476C53.275,52.8,53,52.685,53,52.5S53.38,52,54,52Z"/><path d="M54,46a8,8,0,1,0,8,8A8.009,8.009,0,0,0,54,46Zm0,14a6,6,0,1,1,6-6A6.006,6.006,0,0,1,54,60Z"/><path d="M2.009,46.023,2,47c-.029,3.4.609,5.56,2.07,7C5.358,55.272,7.265,55.906,10,55.983V62h2V55.984c2.735-.078,4.643-.712,5.93-1.985,1.461-1.444,2.1-3.6,2.07-7l-.008-.972L19.019,46c-3.287-.07-5.5.569-6.949,2A5.851,5.851,0,0,0,11,49.483,5.851,5.851,0,0,0,9.93,48c-1.443-1.427-3.655-2.062-6.949-2Zm11.468,3.4c.9-.892,2.347-1.349,4.508-1.415-.089,2.212-.56,3.677-1.462,4.568s-2.347,1.349-4.508,1.415C12.1,51.779,12.575,50.314,13.477,49.423Zm-4.954,0c.9.891,1.373,2.356,1.462,4.568-2.161-.066-3.607-.523-4.508-1.415S4.1,50.22,4.015,48.008C6.176,48.074,7.622,48.531,8.523,49.423Z"/><path d="M32,29a3,3,0,1,0-3-3A3,3,0,0,0,32,29Zm0-4a1,1,0,1,1-1,1A1,1,0,0,1,32,25Z"/><path d="M24.612,24.173a1,1,0,0,0-.533.755,7.313,7.313,0,0,0,0,2.144,1,1,0,0,0,.533.755l1.156.6c.035.09.072.179.112.267l-.4,1.241a1,1,0,0,0,.158.911,8.018,8.018,0,0,0,1.518,1.517,1.007,1.007,0,0,0,.909.158l1.241-.4c.089.04.179.077.269.112l.594,1.156a1,1,0,0,0,.754.533,7.333,7.333,0,0,0,2.147,0,1,1,0,0,0,.754-.533l.595-1.156c.09-.035.18-.072.269-.112l1.241.4a1,1,0,0,0,.91-.158,7.96,7.96,0,0,0,1.517-1.518,1,1,0,0,0,.157-.91l-.4-1.24c.04-.088.077-.178.112-.268l1.156-.6a1,1,0,0,0,.533-.755,7.313,7.313,0,0,0,0-2.144,1,1,0,0,0-.533-.755l-1.156-.6c-.035-.09-.072-.179-.112-.268l.4-1.24a1,1,0,0,0-.158-.911,8.018,8.018,0,0,0-1.518-1.517,1.007,1.007,0,0,0-.909-.158l-1.241.4c-.089-.04-.179-.077-.269-.112l-.594-1.156a1,1,0,0,0-.754-.533,7.356,7.356,0,0,0-2.147,0,1,1,0,0,0-.754.533l-.595,1.156c-.09.035-.18.072-.269.112l-1.241-.4a1.013,1.013,0,0,0-.91.158,7.96,7.96,0,0,0-1.517,1.518,1,1,0,0,0-.157.91l.4,1.24c-.04.088-.077.178-.112.268Zm1.4,1.529,1.025-.528a1,1,0,0,0,.5-.586,4.8,4.8,0,0,1,.311-.745,1,1,0,0,0,.065-.765l-.35-1.1a5.863,5.863,0,0,1,.425-.424l1.1.35a1.006,1.006,0,0,0,.765-.065,4.549,4.549,0,0,1,.741-.31,1,1,0,0,0,.589-.5L31.7,20.01a4.206,4.206,0,0,1,.594,0l.529,1.025a1,1,0,0,0,.589.5,4.549,4.549,0,0,1,.741.31,1.006,1.006,0,0,0,.765.065l1.1-.35a5.693,5.693,0,0,1,.426.425l-.351,1.1a1,1,0,0,0,.065.765,4.8,4.8,0,0,1,.311.745,1,1,0,0,0,.5.586l1.025.528c.007.1.01.2.01.3s0,.2-.01.3l-1.025.528a1,1,0,0,0-.5.586,4.8,4.8,0,0,1-.311.745,1,1,0,0,0-.065.765l.35,1.1a5.863,5.863,0,0,1-.425.424l-1.1-.35a1.006,1.006,0,0,0-.765.065,4.549,4.549,0,0,1-.741.31,1,1,0,0,0-.589.5L32.3,31.99a4.206,4.206,0,0,1-.594,0l-.529-1.025a1,1,0,0,0-.589-.5,4.549,4.549,0,0,1-.741-.31,1.006,1.006,0,0,0-.765-.065l-1.1.35a5.693,5.693,0,0,1-.426-.425l.351-1.1a1,1,0,0,0-.065-.767,4.608,4.608,0,0,1-.311-.741,1,1,0,0,0-.5-.587L26.01,26.3C26,26.2,26,26.1,26,26S26,25.8,26.01,25.7Z"/><path d="M55,38a1,1,0,0,0-1-1H33V36H31v1H11a1,1,0,0,0-1,1v4h2V39H31v1h2V39H53v1h2Z"/><path d="M33,10h5a1,1,0,0,0,1,1h4a1,1,0,0,0,1-1V4a1,1,0,0,0-1-1H40a1,1,0,0,0-1-1H32a1,1,0,0,0-1,1V16h2Zm7-5h2V9H40ZM33,4h5V8H33Z"/><rect x="10" y="44" width="2" height="2"/><rect x="53" y="42" width="2" height="2"/><text x="0" y="79" fill="#000000" font-size="5px" font-weight="bold" font-family="'Helvetica Neue', Helvetica, Arial-Unicode, Arial, Sans-serif">Created by Nithinan Tatah</text><text x="0" y="84" fill="#000000" font-size="5px" font-weight="bold" font-family="'Helvetica Neue', Helvetica, Arial-Unicode, Arial, Sans-serif">from the Noun Project</text></svg>