<svg xmlns="http://www.w3.org/2000/svg" viewBox="0 0 353.22 127.77"><defs><style>.cls-1{fill:#5bc059;}.cls-2{fill:#a1e054;}.cls-3{fill:#4d892b;}.cls-4{fill:#6e6e6e;}.cls-5{fill:none;stroke:#4d892b;stroke-miterlimit:10;}</style></defs><title>Ресурс 1</title><g id="Слой_2" data-name="Слой 2"><g id="Слой_1-2" data-name="Слой 1"><path class="cls-1" d="M51.86,48.12s18,13.23,32.27-6.35a22.17,22.17,0,0,0,1.38-2.22C87.42,36,93.37,25.39,95.73,24.42c0,0-4.83-4.84-21.16-4.34S48.14,30.29,49.81,42.85A14.59,14.59,0,0,0,51.86,48.12Z"/><path class="cls-1" d="M3.86.29S8,6,17.73,8.92c9,2.64,27.17,7.2,24.81,30.47a20.44,20.44,0,0,1-7.47,14c-4.16,3.28-10.24,5.57-18,1.6C-9.52,41.29,3.86.29,3.86.29"/><path class="cls-2" d="M17.73,8.92C8,6,3.86.29,3.86.29l-.1.32c1.6,8.45,8.75,34.79,36.68,45.21l.13.58a21.43,21.43,0,0,0,2-7C44.9,16.12,26.71,11.56,17.73,8.92Z"/><path class="cls-2" d="M51.62,47.66c.08.16.15.3.24.46,0,0,18.71,13.71,33-7.45,0,0,8-15.09,10.83-16.25C52.5,28.11,51.63,47.08,51.62,47.66Z"/><path class="cls-3" d="M60.23,107.17s-22-2.49-12.42-21.61c1-2,6-7.08,7-12.3.94-5,.4-14.09-2.6-21.09S60.76,33.1,68.64,30.3c0,0-12.07,1.2-18.41,11.87S22.15,35.4,19.82,32.35c0,0,3.41,11.82,18.41,18.82A16.66,16.66,0,0,1,48.36,65.79,22.54,22.54,0,0,1,45.6,78c-2.41,4.5-6.92,10.92-5.29,17.73C42,102.78,46.23,106.17,60.23,107.17Z"/><path class="cls-4" d="M77.62,61.61c-4.5,0-8.31,2.66-8.31,7.28,0,5,3.81,6.58,9.12,8.43,7,2.54,15.24,5.31,15.24,15,0,7.62-6.12,14-15.59,14S64,101,61.46,96.25l4-2.42a13.6,13.6,0,0,0,12.58,7.73c7.16,0,10.86-3.57,10.86-9.23,0-6.7-6-8.55-12.47-10.74-5.89-2-11.9-4.62-11.9-12.7,0-6.7,5.78-11.89,13.05-11.89a17.47,17.47,0,0,1,13.51,5.54l-3.46,3A13.14,13.14,0,0,0,77.62,61.61Z"/><path class="cls-4" d="M102.67,81.59A24.62,24.62,0,0,1,146.32,66V57.69h4.73v47.69h-4.73v-8.2a24.62,24.62,0,0,1-43.65-15.59Zm24.6,20a20,20,0,1,0-20-20A19.91,19.91,0,0,0,127.27,101.56Z"/><path class="cls-4" d="M212.25,57.69v46.65c0,14.08-9.47,23.43-23.44,23.43-14.9,0-21.71-7.27-23.33-15.35h4.74c1.61,7.16,9.12,10.62,18.59,10.62,11.08,0,18.7-6.23,18.7-18.82v-7a24.6,24.6,0,1,1-19-40.18,24.34,24.34,0,0,1,19,9V57.69Zm-23.79,43.87a20,20,0,1,0-20-20A19.91,19.91,0,0,0,188.46,101.56Z"/><path class="cls-4" d="M271.59,93.6c-3.23,6.46-9.93,12.7-21.94,12.7-14.55,0-24.71-10.28-24.71-24.71s10.63-24.71,24.71-24.71c14.9,0,24.6,10.74,24.6,23.67H229.56c0,13.28,8.31,21.13,20.09,21.13,9.35,0,14.67-4.62,17.67-10ZM249.65,61.5c-12.81,0-17.89,8.89-19.4,14.55h38.68C267.78,70.51,262.12,61.5,249.65,61.5Z"/><path class="cls-2" d="M288.79,105.38V19.93h4.62v85.45Z"/><path class="cls-2" d="M348,57.69h5.2l-32.56,70.08h-5.32L327.7,101l-20.09-43.3h5.08l17.78,37.64Z"/><path class="cls-5" d="M51.86,48.12s18,13.23,32.27-6.35a22.17,22.17,0,0,0,1.38-2.22C87.42,36,93.37,25.39,95.73,24.42c0,0-4.83-4.84-21.16-4.34S48.14,30.29,49.81,42.85A14.59,14.59,0,0,0,51.86,48.12Z"/><path class="cls-5" d="M3.86.29S8,6,17.73,8.92c9,2.64,27.17,7.2,24.81,30.47a20.44,20.44,0,0,1-7.47,14c-4.16,3.28-10.24,5.57-18,1.6C-9.52,41.29,3.86.29,3.86.29"/></g></g></svg>