<svg xmlns="http://www.w3.org/2000/svg" viewBox="0 0 48 60" x="0px" y="0px"><title>19-Human Resources</title><g data-name="19-Human Resources"><path d="M41,17A17,17,0,1,0,13,29.959V30h.051A17.131,17.131,0,0,0,17,32.486V37h2V31.826a1,1,0,0,0-.624-.927A15.1,15.1,0,0,1,15,28.987v-1.96c0-.054.1-1.34,2.317-2.078A42.74,42.74,0,0,0,22.447,22.9,1,1,0,0,0,23,22V20.651a1,1,0,0,0-.666-.943A5.006,5.006,0,0,1,19,15V12a5,5,0,0,1,10,0v3a5.006,5.006,0,0,1-3.334,4.708,1,1,0,0,0-.666.943V22a1,1,0,0,0,.553.895,42.74,42.74,0,0,0,5.131,2.054C32.9,25.687,33,26.973,33,27v1.988A15.132,15.132,0,0,1,29.624,30.9a1,1,0,0,0-.624.927V37h2V32.486A17.131,17.131,0,0,0,34.949,30H35v-.041A16.917,16.917,0,0,0,41,17Zm-9.684,6.051A44.609,44.609,0,0,1,27,21.366v-.047A7.011,7.011,0,0,0,31,15V12a7,7,0,0,0-14,0v3a7.011,7.011,0,0,0,4,6.319v.047a44.609,44.609,0,0,1-4.316,1.685C13.042,24.265,13,26.889,13,27v.2a15,15,0,1,1,22,0V27C35,26.889,34.958,24.265,31.316,23.051Z"/><path d="M15,41h2v3a1,1,0,0,0,1,1h2v2a1,1,0,0,0,1,1h6a1,1,0,0,0,1-1V45h2a1,1,0,0,0,1-1V41h2V39H15Zm11,5H22V45h4Zm3-3H19V41H29Z"/><rect x="23" y="34" width="2" height="2"/><rect x="23" y="30" width="2" height="2"/><rect x="23" y="26" width="2" height="2"/></g><text x="0" y="63" fill="#000000" font-size="5px" font-weight="bold" font-family="'Helvetica Neue', Helvetica, Arial-Unicode, Arial, Sans-serif">Created by Iconstock</text><text x="0" y="68" fill="#000000" font-size="5px" font-weight="bold" font-family="'Helvetica Neue', Helvetica, Arial-Unicode, Arial, Sans-serif">from the Noun Project</text></svg>