<svg xmlns="http://www.w3.org/2000/svg" data-name="Layer 2" viewBox="0 0 100 125" x="0px" y="0px"><title>Artboard 85</title><path d="M91,32.12A23.13,23.13,0,0,1,61.85,54.44h-.06l-.49-.14h0l-5.78-1.66A1,1,0,1,1,56,50.69l6.3,1.81A21.09,21.09,0,1,0,47.43,37.4h0l6.9,24.07A23.09,23.09,0,1,1,38.7,45.72l4.17,1.2a1,1,0,1,1-.55,1.92l-4.15-1.19A21.09,21.09,0,1,0,52.42,62.05L45.7,38.61l0-.12A23.12,23.12,0,1,1,91,32.12ZM57,36.3V44a1,1,0,0,0,2,0V36.3A2.31,2.31,0,0,1,61.3,34H74.7A2.31,2.31,0,0,1,77,36.3V44a1,1,0,0,0,2,0V36.3A4.31,4.31,0,0,0,74.7,32H61.3A4.31,4.31,0,0,0,57,36.3Zm5.64-10.66-.28-2.7A5.39,5.39,0,0,1,67.72,17h.56a5.39,5.39,0,0,1,5.36,5.94l-.28,2.7a5.39,5.39,0,0,1-10.72,0Zm1.71-2.91.28,2.7a3.39,3.39,0,0,0,6.74,0l.28-2.7A3.39,3.39,0,0,0,68.28,19h-.56a3.39,3.39,0,0,0-3.37,3.74ZM42,81a1,1,0,0,0,1-1V72.3A4.31,4.31,0,0,0,38.7,68H25.3A4.31,4.31,0,0,0,21,72.3V80a1,1,0,0,0,2,0V72.3A2.31,2.31,0,0,1,25.3,70H38.7A2.31,2.31,0,0,1,41,72.3V80A1,1,0,0,0,42,81ZM26.64,61.64l-.28-2.7A5.39,5.39,0,0,1,31.72,53h.56a5.39,5.39,0,0,1,5.36,5.94l-.28,2.7a5.39,5.39,0,0,1-10.72,0Zm1.71-2.91.28,2.7a3.39,3.39,0,0,0,6.74,0l.28-2.7A3.39,3.39,0,0,0,32.28,55h-.56a3.39,3.39,0,0,0-3.37,3.74Z"/><text x="0" y="115" fill="#000000" font-size="5px" font-weight="bold" font-family="'Helvetica Neue', Helvetica, Arial-Unicode, Arial, Sans-serif">Created by Path Lord</text><text x="0" y="120" fill="#000000" font-size="5px" font-weight="bold" font-family="'Helvetica Neue', Helvetica, Arial-Unicode, Arial, Sans-serif">from the Noun Project</text></svg>