<svg width="16" height="16" viewBox="0 0 16 16" version="1.1" xmlns="http://www.w3.org/2000/svg" xmlns:xlink="http://www.w3.org/1999/xlink">
<title>Vector</title>
<desc>Created using Figma</desc>
<g id="Canvas" transform="translate(-28863 -40271)">
<g id="Vector" opacity="0.54">
<use xlink:href="#path0_fill" transform="translate(28863 40271)" fill="#162229"/>
</g>
</g>
<defs>
<path id="path0_fill" d="M 15.8072 14.8974L 11.4426 10.5833C 12.3642 9.46795 12.9145 8.03205 12.9145 6.46795C 12.9145 2.89744 10.0219 0 6.45727 0C 2.89265 0 0 2.89744 0 6.46795C 0 10.0385 2.89265 12.9359 6.45727 12.9359C 8.006 12.9359 9.42033 12.391 10.5339 11.4872L 14.9112 15.8141C 15.0328 15.9359 15.1992 16 15.3592 16C 15.5256 16 15.692 15.9359 15.8136 15.8077C 16.0632 15.5513 16.0632 15.1474 15.8072 14.8974ZM 1.27994 6.46795C 1.27994 3.60897 3.60302 1.28205 6.45727 1.28205C 9.31153 1.28205 11.6346 3.60897 11.6346 6.46795C 11.6346 9.32692 9.31153 11.6538 6.45727 11.6538C 3.60302 11.6538 1.27994 9.32692 1.27994 6.46795Z"/>
</defs>
</svg>
